<?xml version="1.0" encoding="UTF-8" standalone="no"?>
        <svg 
    viewBox="16.11328125 -71.4111328125 434.033203125 52.6611328125"
    width="417.919921875"
    height="124.072265625"
   xmlns="http://www.w3.org/2000/svg"
   xmlns:svg="http://www.w3.org/2000/svg">
   <path d="M31.49-43.65L31.49-43.65Q31.79-45.12 33.11-46.14L33.11-46.14Q33.11-47.46 37.72-47.68Q42.33-47.90 47.02-47.90L47.02-47.90Q56.69-47.90 76.32-47.46L76.32-47.46Q94.34-47.17 106.20-46.66Q118.07-46.14 118.80-45.85L118.80-45.85Q119.38-45.41 119.75-38.38Q120.12-31.35 120.12-19.48L120.12-19.48Q120.26-12.30 120.26-7.18L120.26-7.18Q120.26-2.05 120.04 2.27Q119.82 6.59 119.09 6.88L119.09 6.88Q118.51 7.32 107.81 7.76Q97.12 8.20 78.22 8.35L78.22 8.35Q58.74 8.79 49.51 8.79L49.51 8.79Q47.17 8.79 42.11 8.72Q37.06 8.64 36.47 7.91L36.47 7.91Q35.01 6.88 34.06 0.29Q33.11-6.30 32.52-20.80L32.52-20.80Q32.37-27.25 32.08-32.52Q31.79-37.79 31.49-39.55L31.49-39.55Q31.35-40.87 31.35-41.89L31.35-41.89Q31.35-42.92 31.49-43.65ZM16.11-87.60L16.11-87.60Q16.26-90.67 17.29-91.55L17.29-91.55Q17.87-92.58 23.00-92.94Q28.13-93.31 43.65-93.60L43.65-93.60L68.70-94.19L69.29-101.22L49.51-101.07Q45.26-100.93 42.04-100.93L42.04-100.93Q32.81-100.93 29.52-101.59Q26.22-102.25 26.22-104.88L26.22-104.88Q26.22-105.18 26.22-105.47L26.22-105.47Q26.22-106.35 26.73-107.52Q27.25-108.69 28.13-109.72L28.13-109.72Q28.42-111.04 33.25-111.40Q38.09-111.77 57.13-111.77L57.13-111.77Q82.03-111.91 94.92-111.91L94.92-111.91Q101.37-111.91 108.25-111.84Q115.14-111.77 115.14-110.74L115.14-110.74Q116.46-109.42 116.46-107.96L116.46-107.96Q116.46-107.37 116.02-105.91Q115.58-104.44 112.79-102.83L112.79-102.83Q110.89-101.81 108.40-101.59Q105.91-101.37 102.83-101.37L102.83-101.37Q99.61-101.37 95.07-101.51L95.07-101.51L80.57-102.39L79.83-94.48L105.03-94.48Q107.37-94.48 109.57-94.48L109.57-94.48Q126.56-94.48 130.15-93.53Q133.74-92.58 133.74-88.18L133.74-88.18Q133.74-87.16 133.59-85.99L133.59-85.99Q133.59-78.81 132.28-69.36Q130.96-59.91 129.93-58.01L129.93-58.01Q128.76-56.54 126.42-56.54L126.42-56.54Q126.27-56.54 124.88-56.62Q123.49-56.69 121.73-58.30L121.73-58.30Q120.70-59.03 120.63-60.35Q120.56-61.67 120.56-62.70L120.56-62.70Q120.56-64.89 120.70-68.85L120.70-68.85Q120.85-72.80 121.29-76.10Q121.73-79.39 122.02-80.42L122.02-80.42L122.46-83.06L80.57-83.06L80.57-72.07Q80.57-62.26 79.54-57.93Q78.52-53.61 76.03-52.44L76.03-52.44Q75-52.15 74.27-52.15L74.27-52.15Q74.12-52.15 73.54-52.22Q72.95-52.29 71.63-53.03L71.63-53.03Q69.43-54.35 68.77-58.01Q68.12-61.67 68.12-68.99L68.12-68.99Q68.12-70.46 68.12-72.07L68.12-72.07L68.41-82.62L28.42-83.06L28.42-69.87Q28.42-62.99 27.98-59.62Q27.54-56.25 27.10-55.96L27.10-55.96Q25.20-54.35 24.10-54.27Q23.00-54.20 22.85-54.20L22.85-54.20Q21.09-54.20 19.63-55.37L19.63-55.37Q18.02-56.25 17.50-59.40Q16.99-62.55 16.55-73.54L16.55-73.54Q16.11-82.18 16.11-85.99L16.11-85.99Q16.11-87.01 16.11-87.60ZM81.88-2.34L95.36-2.34Q102.69-2.34 105.83-2.64Q108.98-2.93 108.98-3.66L108.98-3.66Q109.28-4.25 109.57-6.23Q109.86-8.20 109.86-10.84L109.86-10.84L110.16-16.70L82.62-16.70L81.88-2.34ZM44.53-7.91L44.53-7.91Q44.68-5.86 44.97-4.54L44.97-4.54L45.56-1.32L70.61-1.90L71.04-15.82L44.38-15.82L44.38-11.57Q44.38-9.81 44.53-7.91ZM43.36-37.50L43.36-27.25L70.75-27.25L71.04-31.93Q71.19-33.25 71.19-34.42L71.19-34.42Q71.19-35.01 71.12-35.96Q71.04-36.91 71.04-37.21L71.04-37.21Q70.75-37.50 66.80-37.50L66.80-37.50L43.36-37.50ZM82.18-29.88L82.18-29.88L82.47-27.25L108.84-27.25L108.98-31.93Q109.13-33.25 109.13-34.42L109.13-34.42Q109.13-35.01 109.06-35.96Q108.98-36.91 108.98-37.21L108.98-37.21Q108.84-37.50 105.18-37.50L105.18-37.50L95.80-37.50Q89.06-37.50 85.99-37.21Q82.91-36.91 82.91-36.47L82.91-36.47Q82.47-35.16 82.32-33.54Q82.18-31.93 82.18-29.88ZM85.84-61.67L85.84-61.67Q86.43-63.57 88.18-65.48L88.18-65.48Q90.09-66.80 91.55-66.94Q93.02-67.09 93.46-67.09L93.46-67.09Q95.21-67.09 96.09-66.21L96.09-66.21Q96.39-65.63 98.00-65.26Q99.61-64.89 101.66-64.60L101.66-64.60Q108.54-63.87 110.60-61.82Q112.65-59.77 112.65-58.30L112.65-58.30Q112.65-56.84 111.18-55.37L111.18-55.37Q110.16-54.35 107.89-54.35Q105.62-54.35 98.44-55.66L98.44-55.66Q93.75-56.69 90.31-57.50Q86.87-58.30 86.43-58.59L86.43-58.59Q85.69-59.33 85.69-60.35L85.69-60.35Q85.69-60.94 85.84-61.67ZM36.18-77.34L36.18-77.34Q36.33-78.37 36.77-78.81L36.77-78.81Q37.79-80.13 40.72-80.13L40.72-80.13Q40.87-80.13 42.55-80.05Q44.24-79.98 51.56-78.37L51.56-78.37Q53.91-77.78 56.18-77.42Q58.45-77.05 59.18-76.76L59.18-76.76Q62.11-76.17 62.11-73.46Q62.11-70.75 59.18-69.14L59.18-69.14Q58.15-68.55 56.10-68.55L56.10-68.55Q54.64-68.55 51.42-68.99Q48.19-69.43 41.75-71.19L41.75-71.19Q38.96-72.07 37.72-72.95Q36.47-73.83 36.33-75.15L36.33-75.15Q36.18-75.88 36.18-76.61L36.18-76.61Q36.18-76.90 36.18-77.34ZM87.74-74.85L87.74-74.85Q87.74-77.78 91.41-79.39L91.41-79.39Q91.85-79.54 92.58-79.54L92.58-79.54Q94.48-79.54 99.24-78.81Q104.00-78.08 107.96-77.05L107.96-77.05Q109.86-76.17 109.94-74.85Q110.01-73.54 110.01-73.24L110.01-73.24Q110.01-71.04 108.54-69.87L108.54-69.87Q107.23-69.14 103.56-69.14L103.56-69.14Q102.54-69.14 99.10-69.29Q95.65-69.43 91.11-70.46L91.11-70.46Q87.74-71.78 87.74-74.85ZM37.35-64.75L37.35-64.75Q37.79-65.63 38.38-65.92L38.38-65.92Q39.11-66.50 39.99-66.58Q40.87-66.65 41.31-66.65L41.31-66.65Q42.19-66.65 42.92-66.50L42.92-66.50Q44.24-66.21 46.22-65.92Q48.19-65.63 49.95-65.48L49.95-65.48Q54.93-65.19 56.91-64.38Q58.89-63.57 59.47-62.26L59.47-62.26Q60.21-61.23 60.21-60.28Q60.21-59.33 59.47-58.59L59.47-58.59Q58.89-57.28 57.50-56.84Q56.10-56.40 52.15-56.40L52.15-56.40Q44.38-56.40 40.58-58.15Q36.77-59.91 36.77-62.99L36.77-62.99Q36.77-63.87 37.35-64.75ZM177.83-30.91L177.83-30.91Q177.98-33.11 179.30-33.54L179.30-33.54Q181.05-35.01 182.52-35.01L182.52-35.01Q183.98-35.01 185.74-32.59Q187.50-30.18 188.82-19.92L188.82-19.92Q189.26-15.67 189.84-11.94Q190.43-8.20 190.58-6.88L190.58-6.88L191.46-3.81L206.25-3.52Q212.55-3.22 216.87-3.22Q221.19-3.22 221.78-3.52L221.78-3.52Q222.22-3.81 222.29-7.40Q222.36-10.99 222.36-13.18L222.36-13.18Q222.36-17.29 222.22-22.71L222.22-22.71Q221.92-30.47 221.92-35.16L221.92-35.16Q221.92-36.77 222.00-39.77Q222.07-42.77 222.80-43.65L222.80-43.65Q224.12-45.41 227.27-45.41Q230.42-45.41 231.74-43.65L231.74-43.65Q232.32-42.77 232.54-36.69Q232.76-30.62 233.06-22.27L233.06-22.27Q233.06-8.50 233.50-5.35Q233.94-2.20 235.11-2.20L235.11-2.20Q235.11-2.20 235.25-2.20L235.25-2.20Q236.28-1.90 241.11-1.90L241.11-1.90L251.81-1.90L266.60-2.20L266.89-13.04Q267.04-21.97 268.21-24.61Q269.38-27.25 272.31-27.25L272.31-27.25Q272.61-27.25 272.90-27.25L272.90-27.25Q273.34-27.39 273.78-27.39L273.78-27.39Q276.27-27.39 277.37-23.73Q278.47-20.07 278.76-7.76L278.76-7.76Q278.91-1.76 278.91 1.76L278.91 1.76Q278.91 3.52 278.83 5.93Q278.76 8.35 277.88 8.64L277.88 8.64Q275.39 9.23 256.20 9.23L256.20 9.23Q252.39 9.23 236.57 9.16Q220.75 9.08 195.41 8.35L195.41 8.35Q188.23 8.06 186.25 7.84Q184.28 7.62 183.84 7.03L183.84 7.03Q182.23 5.42 180.47-3.00Q178.71-11.43 177.98-20.95L177.98-20.95Q177.83-26.07 177.83-28.71L177.83-28.71Q177.83-30.18 177.83-30.91ZM201.71-82.62L201.71-82.62Q202.00-84.52 202.81-85.25Q203.61-85.99 205.96-86.87L205.96-86.87Q207.57-87.16 211.60-87.67Q215.63-88.18 220.17-88.48L220.17-88.48Q224.71-88.62 227.86-89.21Q231.01-89.79 231.74-90.23L231.74-90.23Q232.18-90.67 232.18-91.99L232.18-91.99Q232.18-92.29 232.10-93.38Q232.03-94.48 231.01-98.44L231.01-98.44Q229.39-104.44 229.32-106.20Q229.25-107.96 229.25-108.25L229.25-108.25Q229.25-110.74 230.13-111.62L230.13-111.62Q231.59-112.79 233.64-112.79L233.64-112.79Q233.94-112.79 235.25-112.72Q236.57-112.65 237.89-111.04L237.89-111.04Q238.62-110.30 239.14-109.13Q239.65-107.96 240.23-106.64L240.23-106.64Q240.53-105.32 241.19-103.56Q241.85-101.81 242.58-100.49L242.58-100.49Q243.31-99.02 243.75-97.71Q244.19-96.39 244.19-95.51L244.19-95.51Q244.19-95.07 244.70-93.97Q245.21-92.87 245.95-92.14L245.95-92.14Q246.53-90.53 248.22-90.45Q249.90-90.38 250.63-90.38L250.63-90.38Q254.30-90.38 264.99-91.11L264.99-91.11Q273.49-91.70 278.17-91.70L278.17-91.70Q281.10-91.70 283.37-91.33Q285.64-90.97 285.64-88.18L285.64-88.18Q285.64-87.74 285.50-87.16L285.50-87.16Q285.50-86.87 285.50-86.72L285.50-86.72Q285.50-83.20 281.54-81.88Q277.59-80.57 266.02-79.98L266.02-79.98L256.79-79.54Q252.83-79.25 252.10-79.25L252.10-79.25Q251.95-79.10 251.95-78.81L251.95-78.81Q251.95-76.90 255.54-69.58Q259.13-62.26 262.65-58.15L262.65-58.15Q264.99-55.52 268.65-53.39Q272.31-51.27 274.80-50.98L274.80-50.98Q275.54-50.98 276.05-52.00Q276.56-53.03 276.86-55.52L276.86-55.52Q277.44-59.47 278.98-61.45Q280.52-63.43 282.86-63.43L282.86-63.43Q285.79-63.43 286.38-60.94Q286.96-58.45 286.96-55.66L286.96-55.66Q286.96-53.03 286.67-49.66L286.67-49.66Q285.79-42.33 284.11-40.36Q282.42-38.38 278.03-38.38L278.03-38.38Q277.44-38.38 276.86-38.38L276.86-38.38Q271.88-38.38 267.26-40.43Q262.65-42.48 256.49-47.61L256.49-47.61Q251.81-51.56 248.80-56.91Q245.80-62.26 243.90-70.46L243.90-70.46Q243.16-73.39 242.36-75.51Q241.55-77.64 241.26-78.08L241.26-78.08Q240.97-78.66 237.82-78.66Q234.67-78.66 228.37-78.08L228.37-78.08Q216.94-76.90 210.79-76.90L210.79-76.90Q207.71-76.90 204.64-77.42Q201.56-77.93 201.56-81.30L201.56-81.30Q201.56-81.88 201.71-82.62ZM164.50-72.95L164.50-72.95Q166.85-76.32 177.25-89.79L177.25-89.79Q182.23-96.09 187.35-102.17Q192.48-108.25 195.70-111.62L195.70-111.62Q197.46-113.53 198.49-113.67Q199.51-113.82 199.66-113.82L199.66-113.82Q201.27-113.82 202.73-112.65L202.73-112.65Q204.79-111.18 204.79-108.98L204.79-108.98Q204.79-108.69 204.57-107.23Q204.35-105.76 200.39-100.49L200.39-100.49L195.70-93.46L195.12-70.75Q194.82-55.66 194.46-51.05Q194.09-46.44 193.07-46.00L193.07-46.00Q192.19-44.97 191.53-44.75Q190.87-44.53 190.43-44.53L190.43-44.53Q189.84-44.53 189.11-44.97L189.11-44.97Q186.18-45.12 185.45-48.56Q184.72-52.00 184.72-56.10L184.72-56.10Q184.72-59.91 185.16-65.19L185.16-65.19Q185.30-69.58 185.30-72.51L185.30-72.51Q185.30-74.12 185.23-76.39Q185.16-78.66 184.86-78.66L184.86-78.66Q184.28-78.37 182.15-76.39Q180.03-74.41 177.25-71.48L177.25-71.48Q173.73-67.53 171.61-65.99Q169.48-64.45 168.16-64.45L168.16-64.45Q165.82-64.45 164.79-65.26Q163.77-66.06 163.18-68.12L163.18-68.12Q162.89-68.55 162.89-69.14L162.89-69.14Q162.89-70.46 164.50-72.95ZM256.79-113.23L256.79-113.23Q258.69-114.55 260.23-114.55Q261.77-114.55 264.26-113.23L264.26-113.23Q269.97-109.28 270.12-106.57Q270.26-103.86 270.26-103.71L270.26-103.71Q270.26-99.02 264.70-98.44L264.70-98.44Q262.94-98.44 261.62-99.39Q260.30-100.34 258.11-102.69L258.11-102.69Q255.18-106.35 254.96-107.81Q254.74-109.28 254.74-109.72L254.74-109.72Q254.74-111.77 256.79-113.23ZM324.32-23.58L324.32-23.58Q324.61-25.34 326.37-26.66Q328.13-27.98 333.40-30.32L333.40-30.32Q344.09-35.16 348.85-38.31Q353.61-41.46 361.52-49.66L361.52-49.66Q371.04-59.62 373.10-60.50Q375.15-61.38 375.88-61.38L375.88-61.38Q378.22-61.38 380.27-57.86L380.27-57.86Q382.91-53.91 387.38-50.46Q391.85-47.02 396.68-45.41L396.68-45.41Q398.73-44.68 401.22-43.43Q403.71-42.19 405.32-41.16L405.32-41.16Q406.93-40.14 409.42-38.96Q411.91-37.79 414.26-36.91L414.26-36.91Q419.82-34.86 424.58-32.37Q429.35-29.88 430.37-28.27L430.37-28.27Q430.66-27.54 430.66-26.81L430.66-26.81Q430.66-25.34 429.57-23.14Q428.47-20.95 426.71-20.65L426.71-20.65Q425.98-20.51 425.10-20.51L425.10-20.51Q423.78-20.51 422.09-20.95Q420.41-21.39 417.77-22.71L417.77-22.71Q414.84-24.46 413.38-24.46L413.38-24.46Q412.35-24.46 411.99-23.51Q411.62-22.56 411.62-18.31L411.62-18.31Q411.62-14.79 411.91-9.08L411.91-9.08Q412.35-2.20 412.35 1.46L412.35 1.46Q412.35 3.37 412.13 5.35Q411.91 7.32 410.89 7.91L410.89 7.91Q405.91 9.38 382.62 9.38L382.62 9.38Q381.45 9.38 368.19 9.30Q354.93 9.23 349.95 7.62L349.95 7.62Q349.22 6.74 348.63 3.74Q348.05 0.73 347.61-5.57L347.61-5.57Q347.31-10.55 346.95-14.79Q346.58-19.04 346.29-20.36L346.29-20.36L345.70-23.58L342.33-21.97Q340.72-21.39 338.60-20.36Q336.47-19.34 334.72-18.75L334.72-18.75Q330.91-16.99 328.93-16.99Q326.95-16.99 325.49-18.75L325.49-18.75Q324.61-19.78 324.46-20.65Q324.32-21.53 324.32-22.41L324.32-22.41Q324.32-23.00 324.32-23.58ZM320.21-72.36L320.21-72.36Q320.21-76.03 320.58-77.71Q320.95-79.39 322.27-80.42L322.27-80.42Q323.00-81.74 327.25-82.03Q331.49-82.32 346.58-82.32L346.58-82.32L368.70-82.32L368.70-85.99Q368.70-87.60 368.92-88.92Q369.14-90.23 369.73-90.82L369.73-90.82Q371.04-91.85 373.97-91.85Q376.90-91.85 377.93-90.53L377.93-90.53Q378.37-89.94 378.81-88.77Q379.25-87.60 379.25-86.28L379.25-86.28L379.54-83.35L401.95-83.35Q415.14-83.35 420.26-83.13Q425.39-82.91 426.12-82.03L426.12-82.03Q427.15-81.30 427.59-79.32Q428.03-77.34 428.03-71.78L428.03-71.78Q428.03-64.16 426.78-61.01Q425.54-57.86 422.75-57.86L422.75-57.86Q422.46-57.86 422.17-57.86L422.17-57.86Q421.88-57.86 421.44-57.86L421.44-57.86Q419.09-57.86 417.99-59.84Q416.89-61.82 416.89-67.09L416.89-67.09L416.89-73.10L384.96-72.36Q371.34-72.07 361.67-71.78Q352.00-71.48 350.54-71.48L350.54-71.48Q349.37-71.19 346.44-71.19L346.44-71.19L339.70-71.19L331.49-71.04L332.08-63.87Q332.37-61.08 332.37-59.33L332.37-59.33Q332.37-58.45 332.23-57.35Q332.08-56.25 331.20-55.37L331.20-55.37Q329.59-54.05 328.42-53.98Q327.25-53.91 327.25-53.91L327.25-53.91Q325.20-53.91 323.88-55.37L323.88-55.37Q322.27-56.98 321.24-61.89Q320.21-66.80 320.21-72.36ZM315.82-99.46L315.82-99.46Q315.97-100.49 316.70-101.81L316.70-101.81Q317.58-103.71 320.07-103.93Q322.56-104.15 332.52-104.15L332.52-104.15L346.73-104.15L346.73-107.08Q346.73-110.60 347.97-112.13Q349.22-113.67 351.86-113.67L351.86-113.67Q353.17-113.67 354.35-113.45Q355.52-113.23 355.96-112.94L355.96-112.94Q357.13-112.06 358.15-110.01Q359.18-107.96 359.18-106.35L359.18-106.35Q359.18-106.05 359.18-105.91L359.18-105.91Q359.18-104.74 360.28-104.52Q361.38-104.30 362.70-104.30L362.70-104.30Q365.33-104.30 370.75-104.74L370.75-104.74Q375.73-105.03 380.35-105.25Q384.96-105.47 387.16-105.76L387.16-105.76Q390.53-106.05 391.33-106.57Q392.14-107.08 392.14-109.28L392.14-109.28Q392.14-110.60 392.50-111.62Q392.87-112.65 393.75-113.38L393.75-113.38Q395.36-114.70 396.68-114.70L396.68-114.70Q396.83-114.70 397.49-114.62Q398.14-114.55 400.34-112.65L400.34-112.65Q401.95-111.62 402.25-110.74Q402.54-109.86 402.54-109.28L402.54-109.28Q402.54-108.84 402.39-108.40L402.39-108.40Q402.25-107.96 402.25-107.67L402.25-107.67Q402.25-106.64 403.42-106.35Q404.59-106.05 410.89-106.05L410.89-106.05Q420.12-106.05 426.20-105.25Q432.28-104.44 433.30-103.13L433.30-103.13Q434.03-101.81 434.03-100.49L434.03-100.49Q434.03-100.05 433.89-98.95Q433.74-97.85 432.42-96.24L432.42-96.24Q431.98-95.21 428.91-95.00Q425.83-94.78 416.60-94.78L416.60-94.78L402.10-94.78L400.78-91.55Q400.05-89.65 399.10-88.99Q398.14-88.33 396.09-88.33L396.09-88.33Q395.21-88.18 394.63-88.18L394.63-88.18Q393.60-88.18 392.87-88.70Q392.14-89.21 391.11-91.55L391.11-91.55L389.50-94.92L375-94.48Q364.75-93.90 362.11-93.38Q359.47-92.87 357.86-90.82L357.86-90.82Q355.81-88.33 354.71-88.26Q353.61-88.18 353.61-88.18L353.61-88.18Q351.56-88.18 349.95-90.82L349.95-90.82Q348.93-92.29 346.29-92.87Q343.65-93.46 332.81-93.60L332.81-93.60L317.72-94.19L316.70-96.83Q315.82-98.29 315.82-99.17L315.82-99.17Q315.82-99.32 315.82-99.46ZM357.13-18.02L357.13-18.02Q357.13-17.43 357.20-15.09Q357.28-12.74 357.57-9.52L357.57-9.52L357.86-2.20L401.07-1.61L400.78-10.11Q400.78-13.48 400.56-16.26Q400.34-19.04 400.34-19.63L400.34-19.63Q400.05-20.07 399.76-20.29Q399.46-20.51 399.32-20.51L399.32-20.51Q399.17-20.51 399.02-20.36L399.02-20.36Q398.00-20.07 391.41-19.85Q384.81-19.63 373.39-19.63L373.39-19.63Q364.45-19.34 360.79-19.04Q357.13-18.75 357.13-18.16L357.13-18.16Q357.13-18.02 357.13-18.02ZM393.75-65.77L393.75-65.77Q394.19-66.80 395.07-67.09L395.07-67.09Q395.95-67.68 397.12-67.68L397.12-67.68Q397.85-67.68 399.46-67.09Q401.07-66.50 405.03-63.28L405.03-63.28Q407.23-61.82 408.91-60.72Q410.60-59.62 410.89-59.62L410.89-59.62Q412.50-59.18 417.19-55.30Q421.88-51.42 423.49-49.37L423.49-49.37Q424.22-48.19 424.22-47.61L424.22-47.61Q424.22-47.46 424.15-47.09Q424.07-46.73 422.75-45.41L422.75-45.41Q420.85-43.51 418.21-43.51L418.21-43.51Q416.16-43.51 412.21-45.12Q408.25-46.73 400.34-54.35L400.34-54.35Q396.39-58.01 394.78-59.99Q393.16-61.96 393.16-63.57L393.16-63.57Q393.16-64.60 393.75-65.77ZM336.18-49.22L336.18-49.22Q337.35-51.42 343.36-56.54L343.36-56.54Q346.29-58.59 348.27-60.42Q350.24-62.26 350.54-62.84L350.54-62.84Q350.68-63.13 351.64-63.87Q352.59-64.60 353.91-65.48L353.91-65.48Q356.69-67.24 358.74-67.24L358.74-67.24Q361.08-67.24 362.55-64.89L362.55-64.89Q363.57-63.43 363.57-62.55L363.57-62.55Q363.57-62.55 363.50-62.04Q363.43-61.52 362.11-59.33L362.11-59.33Q358.59-54.05 351.93-48.93Q345.26-43.80 341.46-43.51L341.46-43.51Q340.43-43.51 339.26-43.95Q338.09-44.38 337.35-45.12L337.35-45.12Q335.74-46.44 335.74-47.75L335.74-47.75Q335.74-48.49 336.18-49.22ZM358.89-30.91L358.89-30.91Q361.52-30.32 372.22-30.32L372.22-30.32Q375.29-30.32 385.69-30.47Q396.09-30.62 398.14-31.64L398.14-31.64Q398.14-31.93 396.75-32.74Q395.36-33.54 393.46-34.13L393.46-34.13Q389.21-35.60 384.23-38.67Q379.25-41.75 376.90-44.38L376.90-44.38Q376.03-45.12 375.22-45.63Q374.41-46.14 374.27-46.14L374.27-46.14Q372.07-45.41 365.63-38.96Q359.18-32.52 358.89-30.91Z"/>
    </svg>
        