<svg width="158" height="158" version="1.1" xmlns="http://www.w3.org/2000/svg" xmlns:xlink="http://www.w3.org/1999/xlink"><path d="M97.64 58.78L97.64 58.78Q96.22 59.41 92.75 59.09L92.75 59.09L80.58 53.09Q79.63 52.46 79.63 50.09L79.63 50.09Q87.37 48.03 92.43 49.45L92.43 49.45Q93.69 49.93 94.64 50.56L94.64 50.56Q97.17 52.14 97.96 55.93L97.96 55.93L97.96 56.88Q97.96 58.14 97.64 58.78ZM134.14 45.03L134.14 45.03L133.83 45.66Q132.25 46.61 125.77 47.87L125.77 47.87Q124.66 48.03 123.71 48.35L123.71 48.35Q117.39 50.24 110.60 53.88L110.60 53.88L107.91 53.88L114.08 40.45Q114.08 39.18 112.65 38.55L112.65 38.55Q101.44 38.55 72.68 42.19L72.68 42.19L71.89 42.19L71.10 74.26Q71.10 79.00 68.41 81.37L68.41 81.37Q67.62 82.00 66.68 82.16L66.68 82.16Q61.62 76.63 63.67 61.94L63.67 61.94Q65.25 51.67 65.25 50.40L65.25 50.40L65.57 43.13Q60.04 43.13 45.98 46.45L45.98 46.45Q39.66 47.87 35.39 48.35L35.39 48.35Q30.02 48.66 28.60 47.72L28.60 47.72Q28.28 48.19 24.49 58.46L24.49 58.46Q20.70 69.05 17.06 69.05L17.06 69.05Q12.01 64.78 12.96 57.99L12.96 57.99L13.27 56.09Q20.22 48.98 21.01 42.34L21.01 42.34L21.33 38.71Q21.80 37.76 23.38 37.76L23.38 37.76Q25.44 38.87 28.28 43.29L28.28 43.29Q33.81 43.13 53.40 40.29L53.40 40.29Q60.36 39.34 65.10 39.03L65.10 39.03Q65.10 32.55 62.41 25.28L62.41 25.28Q57.35 26.39 52.77 25.12L52.77 25.12Q48.98 24.17 46.61 21.80L46.61 21.80L47.72 20.38Q64.15 18.64 74.10 16.27L74.10 16.27L86.43 12.96Q88.80 12.48 90.85 12.48L90.85 12.48Q95.12 12.48 97.96 15.64L97.96 15.64Q97.96 17.70 96.54 18.33L96.54 18.33Q95.91 18.64 88.48 19.91L88.48 19.91L69.20 24.02L68.73 24.49Q72.52 26.70 73.31 28.60L73.31 28.60L72.05 37.76L74.73 37.76L118.03 32.71Q121.19 32.23 131.14 41.71L131.14 41.71Q131.93 42.66 132.40 42.98L132.40 42.98Q133.98 44.56 134.14 45.03ZM96.38 76.00L96.38 76.00L94.01 76.00Q82.32 71.10 79.16 69.05L79.16 69.05L78.84 67.15Q83.74 65.89 88.80 66.83L88.80 66.83Q91.80 67.47 94.17 68.57L94.17 68.57Q97.01 72.36 97.01 73.94L97.01 73.94Q97.01 75.05 96.38 76.00ZM37.76 56.72L37.76 56.72Q46.29 54.04 51.03 56.72L51.03 56.72Q52.46 57.51 53.25 58.93L53.25 58.93L53.56 59.57L54.04 62.57Q53.88 63.04 53.56 63.36L53.56 63.36Q51.82 65.57 44.40 62.09L44.40 62.09Q38.08 59.25 37.76 56.72ZM51.19 76.95L51.19 76.95Q51.19 81.05 49.93 81.37L49.93 81.37Q47.24 81.84 37.13 77.42L37.13 77.42Q36.66 77.10 36.34 76.95L36.34 76.95L35.87 74.58Q43.29 71.89 48.03 74.10L48.03 74.10Q50.09 75.05 51.19 76.95ZM112.02 94.17L112.02 94.17Q106.18 100.33 104.44 114.08L104.44 114.08Q102.86 127.66 101.75 131.30L101.75 131.30Q101.12 133.04 100.49 134.46L100.49 134.46Q97.96 140.30 97.17 141.25L97.17 141.25L95.59 142.67L93.38 143.31L93.22 143.31Q90.38 138.72 85.48 127.51L85.48 127.51Q58.46 128.93 45.19 131.30L45.19 131.30Q45.19 135.09 44.24 136.51L44.24 136.51Q41.24 136.35 39.03 131.93L39.03 131.93Q37.76 129.72 37.45 129.09L37.45 129.09L33.34 106.49Q31.13 97.17 26.86 91.17L26.86 91.17Q26.54 88.01 32.86 90.69L32.86 90.69Q33.50 91.01 33.65 91.01L33.65 91.01Q58.78 91.01 77.26 87.53L77.26 87.53Q83.42 86.43 91.01 84.37L91.01 84.37L97.01 82.79Q99.86 82.48 106.33 86.74L106.33 86.74Q107.28 87.37 108.07 88.01L108.07 88.01Q111.55 90.69 112.02 91.96L112.02 91.96Q112.34 93.06 112.02 94.17ZM68.41 92.90L68.41 92.90Q72.21 94.01 71.57 100.01L71.57 100.01Q71.10 103.02 71.10 103.65L71.10 103.65Q74.73 100.96 81.69 102.70L81.69 102.70Q86.43 103.81 85.95 105.86L85.95 105.86Q85.64 106.65 84.53 107.44L84.53 107.44L70.78 110.60L70.31 122.92Q76.47 121.19 84.21 121.19L84.21 121.19Q85.79 121.19 88.32 123.71L88.32 123.71Q90.53 125.93 92.43 125.14L92.43 125.14Q96.06 108.23 96.06 98.28L96.06 98.28Q96.06 94.80 95.75 93.69L95.75 93.69Q94.64 89.11 73.00 92.27L73.00 92.27Q69.20 92.75 68.41 92.90ZM44.71 126.08L63.52 123.87L62.88 112.18L62.88 112.02Q55.14 112.81 51.51 110.92L51.51 110.92L49.14 109.18L48.82 108.86L49.30 107.91Q50.88 107.44 59.72 106.18L59.72 106.18Q61.46 106.02 62.88 105.70L62.88 105.70L61.46 95.59Q61.30 94.64 60.99 93.85L60.99 93.85L40.29 96.85Q41.24 111.39 44.71 126.08L44.71 126.08Z" stroke="#000" fill="black" /></svg>