<svg width="158" height="158" version="1.1" xmlns="http://www.w3.org/2000/svg" xmlns:xlink="http://www.w3.org/1999/xlink"><path d="M118.34 30.70L118.34 30.70Q117.55 31.81 113.92 31.81L113.92 31.81Q103.81 24.86 96.38 18.69L96.38 18.69Q96.38 15.69 97.80 15.53L97.80 15.53Q102.86 14.90 111.07 18.85L111.07 18.85Q115.66 20.91 117.39 23.12L117.39 23.12Q118.97 28.49 118.34 30.70ZM139.67 91.53L139.67 91.53Q139.36 96.43 136.04 96.43L136.04 96.43Q134.93 96.59 131.93 96.11L131.93 96.11Q112.97 93.59 95.43 70.99L95.43 70.99Q91.32 65.78 84.21 55.35L84.21 55.35L71.10 58.83Q63.04 60.25 58.14 56.14L58.14 56.14L59.41 54.88L76.63 50.93Q79 50.29 81.05 49.50L81.05 49.50Q79.95 47.13 70.78 25.96L70.78 25.96Q69.99 24.22 69.36 22.80L69.36 22.80Q68.89 21.85 65.25 17.43L65.25 17.43Q62.73 14.43 62.73 11.58L62.73 11.58Q66.04 9.06 73.47 12.06L73.47 12.06Q77.42 13.64 78.68 15.85L78.68 15.85Q78.68 30.23 87.69 46.98L87.69 46.98L100.49 43.03Q111.07 40.34 110.92 46.03L110.92 46.03Q107.28 48.56 97.17 51.40L97.17 51.40Q93.38 52.35 91.01 53.30L91.01 53.30Q103.33 72.89 117.55 80.00L117.55 80.00Q121.19 81.74 122.45 82.05L122.45 82.05Q127.03 82.68 130.51 72.41L130.51 72.41L133.35 62.78Q134.30 63.09 134.77 65.15L134.77 65.15L138.25 86.32Q138.88 89.16 139.67 91.53ZM54.98 26.75L54.98 26.75L54.83 28.96L42.98 46.34L46.93 51.72Q47.56 52.66 47.56 53.61L47.56 53.61Q47.56 53.77 47.08 55.67L47.08 55.67Q46.93 56.46 46.61 71.94L46.61 71.94Q46.45 89.16 42.50 89.95L42.50 89.95Q38.55 88.37 37.13 81.89L37.13 81.89Q36.18 77.31 37.76 74.94L37.76 74.94L39.50 60.09Q39.66 55.19 38.55 51.87L38.55 51.87Q27.33 64.83 23.23 68.46L23.23 68.46Q14.54 76.36 6.16 78.42L6.16 78.42L5.69 77.79L6.48 76.21L6.64 76.21Q7.43 75.10 16.75 66.25L16.75 66.25Q17.22 65.62 17.70 65.15L17.70 65.15Q36.81 44.92 42.50 27.54L42.50 27.54Q43.13 24.07 42.82 17.43L42.82 17.43Q47.24 15.22 52.61 22.80L52.61 22.80Q54.19 24.86 54.98 26.75ZM109.81 136.56L109.81 136.56Q104.91 134.98 103.49 125.19L103.49 125.19Q103.17 123.45 103.17 122.18L103.17 122.18Q94.64 120.92 81.21 123.45L81.21 123.45L77.89 124.08Q57.99 127.56 50.56 130.24L50.56 130.24Q43.92 132.77 38.87 136.09L38.87 136.09Q35.71 136.09 32.07 131.82L32.07 131.82Q31.60 131.19 31.28 130.87L31.28 130.87Q31.28 128.66 33.81 125.82L33.81 125.82Q34.92 124.71 35.39 123.76L35.39 123.76Q38.87 117.13 37.76 108.12L37.76 108.12Q37.45 104.65 36.34 101.80L36.34 101.80Q36.34 99.75 37.13 99.27L37.13 99.27Q41.40 99.43 46.77 105.75L46.77 105.75Q47.72 109.70 45.82 118.87L45.82 118.87Q45.19 121.55 45.03 123.13L45.03 123.13Q45.82 123.92 47.87 123.92L47.87 123.92Q48.51 123.92 48.98 123.76L48.98 123.76Q49.14 123.76 54.04 122.34L54.04 122.34Q54.35 122.18 54.83 122.18L54.83 122.18Q59.09 121.08 68.41 119.81L68.41 119.81L67.94 100.06Q67.15 90.11 63.52 83.79L63.52 83.79Q63.52 81.74 65.25 81.10L65.25 81.10Q73.79 81.58 78.37 86.63L78.37 86.63Q76.00 102.91 74.73 118.55L74.73 118.55Q78.05 118.55 93.22 116.65L93.22 116.65Q98.91 116.02 103.02 116.02L103.02 116.02Q100.33 102.59 96.70 96.43L96.70 96.43Q96.70 94.69 99.07 94.06L99.07 94.06Q105.07 94.85 109.34 97.06L109.34 97.06Q109.81 97.38 109.97 97.54L109.97 97.54Q111.39 98.64 111.39 100.70L111.39 100.70L111.07 108.28L111.07 108.44L112.02 126.92Q112.02 135.30 109.81 136.56Z" stroke="#000" fill="black" /></svg>