<svg width="158" height="158" version="1.1" xmlns="http://www.w3.org/2000/svg" xmlns:xlink="http://www.w3.org/1999/xlink"><path d="M122.77 39.97L122.77 39.97L121.34 40.76Q110.28 39.97 100.49 40.45L100.49 40.45Q94.01 40.61 87.85 41.40L87.85 41.40L83.42 50.09Q81.69 52.77 79.32 54.19L79.32 54.19Q78.53 54.19 78.21 53.72L78.21 53.72L80.74 40.76L77.26 38.24Q76.79 37.76 76.63 37.13L76.63 37.13Q77.58 36.50 81.69 36.18L81.69 36.18L83.27 26.54Q83.42 22.44 81.69 19.28L81.69 19.28Q82.16 18.01 84.53 17.38L84.53 17.38Q91.01 18.01 96.06 24.17L96.06 24.17Q96.06 25.60 92.59 30.81L92.59 30.81L90.85 34.44Q90.69 34.92 90.69 35.23L90.69 35.23L93.38 35.23L110.28 33.34Q122.92 32.86 122.77 39.97ZM59.57 52.46L59.25 50.56Q61.30 48.35 67.94 51.03L67.94 51.03Q73.47 53.25 73.79 55.93L73.79 55.93L73.63 58.93Q73.15 60.51 72.21 60.67L72.21 60.67Q69.52 61.15 62.88 55.93L62.88 55.93Q60.04 53.72 59.57 52.46L59.57 52.46ZM66.83 39.66L66.83 39.66Q65.25 40.76 58.62 42.34L58.62 42.34Q55.77 42.98 54.04 43.92L54.04 43.92Q54.04 50.09 53.09 53.09L53.09 53.09Q50.24 52.46 48.66 47.08L48.66 47.08Q48.35 45.66 48.03 45.03L48.03 45.03L26.07 49.77Q18.80 47.24 16.43 43.92L16.43 43.92Q16.43 42.34 17.06 41.87L17.06 41.87Q23.07 42.50 39.18 40.45L39.18 40.45Q43.61 39.82 46.45 39.66L46.45 39.66Q46.45 35.39 41.40 29.39L41.40 29.39Q41.40 26.86 42.34 26.39L42.34 26.39Q44.71 25.60 51.98 28.60L51.98 28.60Q52.46 28.91 52.93 29.07L52.93 29.07Q54.35 31.28 54.04 38.24L54.04 38.24L63.20 37.13Q66.83 37.13 66.83 39.66ZM96.06 94.80L96.06 94.80L92.90 94.33L75.52 81.21Q74.73 80.74 74.73 77.89L74.73 77.89L78.37 77.42L78.53 77.58Q92.75 80.58 96.22 85.95L96.22 85.95Q97.49 88.01 97.64 90.53L97.64 90.53Q97.64 94.01 96.06 94.80ZM99.70 79L99.70 79L98.28 79L98.28 77.42L103.49 69.05Q104.28 67.47 104.75 66.04L104.75 66.04Q99.38 61.94 53.88 70.31L53.88 70.31L50.72 70.94L36.34 74.42Q32.07 75.21 29.86 74.58L29.86 74.58L22.59 89.43Q21.01 92.27 19.91 93.38L19.91 93.38L18.80 93.85L18.01 93.54Q14.69 90.69 14.69 82.63L14.69 82.63Q20.70 75.68 21.96 73.47L21.96 73.47Q22.91 71.57 23.38 69.99L23.38 69.99L23.86 66.04Q24.17 65.10 26.07 65.25L26.07 65.25Q27.33 66.52 29.39 69.52L29.39 69.52Q44.71 67.94 93.69 60.51L93.69 60.51Q107.76 58.46 111.23 60.20L111.23 60.20Q112.02 60.51 112.34 60.83L112.34 60.83Q125.77 71.57 121.19 72.68L121.19 72.68L115.50 73.47Q109.18 74.73 99.70 79ZM55.93 81.05L55.93 83.27L44.56 92.90Q35.71 99.70 27.49 99.70L27.49 99.70L39.50 89.27Q45.19 83.90 46.29 78.37L46.29 78.37Q47.40 77.58 51.35 78.37L51.35 78.37Q55.14 80.42 55.93 81.05L55.93 81.05ZM137.14 124.50L138.41 125.77L137.14 126.72Q121.19 130.03 120.71 130.03L120.71 130.03Q109.02 131.77 105.23 128.93L105.23 128.93Q83.74 113.44 66.68 97.17L66.68 97.17L49.61 113.76Q44.08 118.82 39.34 122.29L39.34 122.29Q41.71 122.77 48.03 124.82L48.03 124.82L69.05 121.34L79.16 118.82Q79.32 118.66 79.47 118.66L79.47 118.66Q85.32 118.03 91.48 122.13L91.48 122.13Q93.85 123.71 95.75 125.77L95.75 125.77Q95.75 127.98 92.27 131.61L92.27 131.61Q91.17 132.88 90.69 133.67L90.69 133.67Q88.01 137.62 86.11 142.99L86.11 142.99Q90.38 145.68 90.38 148.20L90.38 148.20Q87.22 149.15 78.05 149.15L78.05 149.15L76.79 149.31Q66.52 149.63 51.35 151.84L51.35 151.84Q50.56 156.58 49.61 157.68L49.61 157.68Q45.19 155.16 44.24 146.62L44.24 146.62Q43.77 143.15 43.77 142.99L43.77 142.99Q42.03 132.56 37.76 123.56L37.76 123.56Q25.60 132.09 21.33 134.14L21.33 134.14Q14.06 137.62 6.95 137.62L6.95 137.62Q8.53 136.51 27.49 123.08L27.49 123.08Q47.87 108.55 55.46 97.01L55.46 97.01Q58.14 92.75 59.57 88.48L59.57 88.48Q61.78 86.43 66.99 88.80L66.99 88.80Q68.41 89.43 69.05 89.74L69.05 89.74Q71.73 92.43 70.15 94.01L70.15 94.01Q69.84 94.48 69.20 94.80L69.20 94.80Q97.64 117.39 137.14 124.50L137.14 124.50ZM48.66 129.72L48.66 129.72Q49.93 140.78 51.03 146.15L51.03 146.15Q63.20 145.20 79 142.04L79 142.04Q81.53 129.88 80.74 127.03L80.74 127.03Q79.79 125.14 77.26 125.29L77.26 125.29L76.31 125.29Q67.31 125.77 48.66 129.72Z" stroke="#000" fill="black" /></svg>